<?xml version="1.0" encoding="utf-8"?>
<!-- Generator: Adobe Illustrator 21.1.0, SVG Export Plug-In . SVG Version: 6.00 Build 0)  -->
<svg version="1.1" id="Layer_1" xmlns="http://www.w3.org/2000/svg" xmlns:xlink="http://www.w3.org/1999/xlink" x="0px" y="0px"
	 viewBox="0 0 864 859" style="enable-background:new 0 0 864 859;" xml:space="preserve">
<style type="text/css">
	.Arched_x0020_Green{fill:url(#SVGID_1_);stroke:#FFFFFF;stroke-width:0.25;stroke-miterlimit:1;}
</style>
<linearGradient id="SVGID_1_" gradientUnits="userSpaceOnUse" x1="237" y1="395.6572" x2="237.7071" y2="394.9501">
	<stop  offset="0" style="stop-color:#20AC4B"/>
	<stop  offset="0.9831" style="stop-color:#19361A"/>
</linearGradient>
<g>
	<path d="M164.8,412.3c-4.2,0-12.7,0.6-18.7,10c-1.2-2.1-5.7-10-16.9-10c-6.6,0-11.9,3-15.4,8.1v-6.6h-10.8v62h10.8V442
		c0-7.5,1.3-20.2,13.6-20.2c11.4,0,11.2,12.8,11.2,17.2v36.7h10.8v-34.5c0-7.5,1.3-19.4,13.7-19.4c10.2,0,11.1,9.3,11.1,16.3v37.6
		h10.8v-39.3C184.9,427.7,183.1,412.3,164.8,412.3z"/>
	<path d="M251.7,475.8v-62h-10.8v8.8c-2.8-3.7-9.3-10.3-21.2-10.3c-15.8,0-30.2,11.1-30.2,32.4c0,21.8,14.5,32.9,30.2,32.9
		c10.9,0,17.6-5.8,21.2-10.5v8.7H251.7z M220.9,468c-12.8,0-20.3-10-20.3-23.3c0-15.1,9.7-22.9,20.3-22.9c9.6,0,20.6,7,20.6,23
		C241.5,457.1,234.1,468,220.9,468z"/>
	<path d="M279.5,437.7c-7-3-10-4.3-10-8.8c0-4.8,3.6-7,7.5-7c4,0,7.2,2.7,8.7,6.3l8.8-4.6c-4.9-10.6-13.7-11.2-17-11.2
		c-10.5,0-18.1,6.4-18.1,17.3c0,3.1,0.4,6.1,2.8,9.1c2.8,3.4,7.6,5.8,15.1,9.1c5.8,2.5,10,4.5,10,10.3c0,4.6-3.1,9.9-10.2,9.9
		c-7.8,0-11.4-6.9-12.5-10.2l-9.3,3.9c5.2,15.5,19.1,15.8,21.7,15.8c11.9,0,21.4-7.3,21.4-20.3c0-3.4-0.6-6.7-3.3-10
		C292.6,444.2,288.4,441.4,279.5,437.7z"/>
	<polygon points="100.9,554.1 121.2,554.1 121.2,548 108,548 108,538 120.6,538 120.6,531.9 108,531.9 108,523.8 121.2,523.8 
		121.2,517.6 100.9,517.6 	"/>
	<polygon points="154.3,517.6 145.8,517.6 139.1,529 132.7,517.6 124.2,517.6 135,534.9 122.1,554.1 130.7,554.1 139.1,540.8 
		147.1,554.1 155.6,554.1 143.1,534.9 	"/>
	<path d="M169.3,517.6h-10.6v36.5h7.1v-13.5h4.6c4.2,0,7.2-1.2,9.2-3.2c2.8-2.8,3-6.7,3-8.1c0-2.6-0.8-6.2-3.7-8.8
		C176.2,518.1,173.4,517.6,169.3,517.6z M173.3,533.3c-1.5,1.1-3.3,1.1-4.6,1.1h-2.9v-10.7h2.5c1.7,0,3.6,0.1,5,1.1
		c1,0.8,2,2.1,2,4.2C175.3,530.7,174.6,532.3,173.3,533.3z"/>
	<polygon points="185.7,554.1 205.9,554.1 205.9,548 192.8,548 192.8,538 205.3,538 205.3,531.9 192.8,531.9 192.8,523.8 
		205.9,523.8 205.9,517.6 185.7,517.6 	"/>
	<path d="M233.6,521.2c-4-3-8.5-3.6-13.6-3.6h-9.5v36.5h9.4c5.1,0,9.1-0.5,13.3-3.5c4.8-3.4,7.3-8.6,7.3-14.7
		C240.6,529.8,238.1,524.5,233.6,521.2z M228.8,545.6c-3.2,2.3-7.1,2.4-8.9,2.4h-2.2v-24.2h2.2c2.4,0,6,0.2,9,2.4
		c2.9,2.2,4.5,5.9,4.5,9.7C233.3,539.8,231.7,543.5,228.8,545.6z"/>
	<rect x="245" y="517.6" width="7.1" height="36.5"/>
	<path d="M262.3,521.6c-3.1,2.9-5.8,7.7-5.8,14.3c0,5.4,1.6,9.9,5.8,13.9c3.1,2.9,6.9,5.1,13.3,5.1c3.9,0,6.8-1,9-2.1v-8.3
		c-2.1,2.5-5.1,4-8.5,4c-6.1,0-12.4-4.4-12.4-12.5c0-6.7,4.8-12.7,12.1-12.7c1.3,0,5.5,0.3,8.8,4.1v-8.3c-3.3-1.8-6.4-2.2-9-2.2
		C270.5,516.8,266,518.2,262.3,521.6z"/>
	<rect x="289.1" y="517.6" width="7.1" height="36.5"/>
	<path d="M320,516.8c-11.5,0-19.5,8-19.5,19.1c0,11.1,8,19,19.5,19c11.5,0,19.5-7.9,19.5-19C339.5,524.8,331.5,516.8,320,516.8z
		 M320,548.5c-7.1,0-12.1-5.2-12.1-12.6c0-7.4,5-12.6,12.1-12.6s12.1,5.2,12.1,12.6C332.1,543.3,327.1,548.5,320,548.5z"/>
	<polygon points="371,542 348.8,517.6 343.8,517.6 343.8,554.1 350.9,554.1 350.9,529.7 373.1,554.1 378.1,554.1 378.1,517.6 
		371,517.6 	"/>
	<polygon points="384.2,554.1 404.4,554.1 404.4,548 391.3,548 391.3,538 403.9,538 403.9,531.9 391.3,531.9 391.3,523.8 
		404.4,523.8 404.4,517.6 384.2,517.6 	"/>
	<path d="M428.9,535.3c-1.9-1.7-4.5-2.7-7.4-3.7c-2.3-0.8-3.5-1.3-4.4-2.1c-0.9-0.8-1.1-1.6-1.1-2.5c0-1.9,1.2-4.3,5-4.3
		c1.3,0,3.8,0.3,6,3.1l3.7-4.9c-3.7-3.8-8-4.3-10.3-4.3c-8.1,0-11.7,5.4-11.7,10.7c0,3.7,1.7,5.7,2.9,6.8c1.9,1.6,4.2,2.5,6.1,3.2
		c2.1,0.7,4.3,1.4,5.6,2.7c1,0.9,1.4,2,1.4,3.3c0,3.1-2.4,5-5.6,5c-2.6,0-5.9-1.3-7.7-4.9l-4.6,4.4c1.9,2.8,5.8,6.9,12.6,6.9
		c7.5,0,12.7-4.9,12.7-12C432.1,539.2,430.6,536.8,428.9,535.3z"/>
	<path d="M469.7,521.2c-4-3-8.5-3.6-13.6-3.6h-9.5v36.5h9.4c5.1,0,9.1-0.5,13.3-3.5c4.8-3.4,7.3-8.6,7.3-14.7
		C476.7,529.8,474.2,524.5,469.7,521.2z M464.9,545.6c-3.2,2.3-7.1,2.4-8.9,2.4h-2.2v-24.2h2.2c2.4,0,6,0.2,9,2.4
		c2.9,2.2,4.5,5.9,4.5,9.7C469.4,539.8,467.8,543.5,464.9,545.6z"/>
	<polygon points="481.1,554.1 501.3,554.1 501.3,548 488.2,548 488.2,538 500.8,538 500.8,531.9 488.2,531.9 488.2,523.8 
		501.3,523.8 501.3,517.6 481.1,517.6 	"/>
	<polygon points="546.4,517.6 536.3,540.8 526.6,517.6 521.5,517.6 514.7,554.1 521.9,554.1 525.6,531.6 535,554.1 537.4,554.1 
		547.2,531.6 550.5,554.1 557.7,554.1 551.6,517.6 	"/>
	<path d="M579.6,516.8c-11.5,0-19.5,8-19.5,19.1c0,11.1,8,19,19.5,19c11.5,0,19.5-7.9,19.5-19C599.1,524.8,591.1,516.8,579.6,516.8z
		 M579.6,548.5c-7.1,0-12.1-5.2-12.1-12.6c0-7.4,5-12.6,12.1-12.6c7.1,0,12.1,5.2,12.1,12.6C591.8,543.3,586.8,548.5,579.6,548.5z"
		/>
	<polygon points="630.6,542 608.4,517.6 603.5,517.6 603.5,554.1 610.6,554.1 610.6,529.7 632.8,554.1 637.7,554.1 637.7,517.6 
		630.6,517.6 	"/>
	<polygon points="663.5,517.6 640,517.6 640,523.8 648.2,523.8 648.2,554.1 655.3,554.1 655.3,523.8 663.5,523.8 	"/>
	<path d="M675.3,517.6l-15.7,36.5h7.7l3.2-7.7h14.7l3.2,7.7h7.7l-15.2-36.5H675.3z M672.8,540.7l5.2-13.1l5.2,13.1H672.8z"/>
	<polygon points="725.3,542 703.1,517.6 698.2,517.6 698.2,554.1 705.3,554.1 705.3,529.7 727.5,554.1 732.4,554.1 732.4,517.6 
		725.3,517.6 	"/>
	<path d="M720.2,508.7c-0.5,0-1.3-0.2-2.6-0.7l-2.1-0.9c-1-0.4-2.4-0.9-3.7-0.9c-1.4,0-2.8,0.5-4.2,1.8c-0.8,0.8-1.6,1.9-2.1,3
		l3.7,2.6c0.2-0.4,0.5-1,0.9-1.3c0.5-0.5,1.2-0.8,1.9-0.8c0.7,0,1.4,0.3,2.7,0.8l1.9,0.8c1.4,0.5,2.6,0.9,3.7,0.9
		c1.4,0,2.6-0.5,3.8-1.5c0.3-0.3,1.5-1.4,2.5-3.2l-3.6-2.6c-0.2,0.5-0.5,1.1-0.9,1.4C721.5,508.5,720.9,508.7,720.2,508.7z"/>
	<path d="M750.2,517.6l-15.7,36.5h7.7l3.2-7.7h14.7l3.2,7.7h7.7l-15.2-36.5H750.2z M747.7,540.7l5.2-13.1l5.2,13.1H747.7z"/>
	<polygon points="542.6,345.2 539.9,331.5 703.7,488 771.1,488 496.6,290.1 534.2,326 537.4,337.2 516.5,320.7 506.5,344.1 
		489.1,324.1 458.2,362.1 456.6,332.4 447.8,341.6 445.4,328.6 496.6,290.2 310.5,405.9 341.4,406.6 442.4,330.9 445.9,347 
		453.4,339.7 455.9,369 488.3,330.5 507.3,350 517.1,326.6 	"/>
</g>
</svg>
